<!DOCTYPE svg PUBLIC "-//W3C//DTD SVG 1.1//EN" "http://www.w3.org/Graphics/SVG/1.1/DTD/svg11.dtd">

<!-- Uploaded to: SVG Repo, www.svgrepo.com, Transformed by: SVG Repo Mixer Tools -->
<svg fill="#4C57B6" height="800px" width="800px" version="1.1" id="Layer_1" xmlns="http://www.w3.org/2000/svg" xmlns:xlink="http://www.w3.org/1999/xlink" viewBox="0 0 512.00 512.00" xml:space="preserve">

<g id="SVGRepo_bgCarrier" stroke-width="0"/>

<g id="SVGRepo_tracerCarrier" stroke-linecap="round" stroke-linejoin="round" stroke="#CCCCCC" stroke-width="5.12"/>

<g id="SVGRepo_iconCarrier"> <g> <g> <path d="M256,278.261c-36.826,0-66.783,29.956-66.783,66.783V500.87h133.565V345.044C322.783,308.218,292.826,278.261,256,278.261 z M239.305,389.565c-9.22,0-16.696-7.475-16.696-16.696s7.475-16.696,16.696-16.696c9.22,0,16.696,7.475,16.696,16.696 S248.525,389.565,239.305,389.565z"/> </g> </g> <g> <g> <path d="M507.108,255.327l-50.76-50.761V94.609c0-9.217-7.473-16.696-16.696-16.696H372.87c-9.223,0-16.696,7.479-16.696,16.696 v9.783l-88.37-88.37c-6.521-6.521-17.087-6.521-23.609,0C152.877,107.34,96.815,163.402,4.891,255.326 c-6.521,6.521-6.521,17.087,0,23.609s17.087,6.521,23.609,0l27.153-27.152v232.391c0,9.217,7.473,16.696,16.696,16.696h83.478 V345.044c0-55.239,44.94-100.174,100.174-100.174s100.174,44.935,100.174,100.174V500.87h83.478 c9.223,0,16.696-7.479,16.696-16.696V251.783l27.153,27.153c6.522,6.522,17.086,6.522,23.609,0 C513.631,272.413,513.631,261.848,507.108,255.327z M422.957,171.174l-33.391-33.391v-26.478h33.391V171.174z"/> </g> </g> </g>

</svg>